<svg xmlns="http://www.w3.org/2000/svg" width="100" height="100" viewBox="0 0 100 100">
    <circle fill="#ffffff" cx="50" cy="50" r="45"/>
    <path fill="#ae1f00" d="M49.965 20A21.03 21.03 0 0 0 28.94 41.027c0 3.772 1.007 7.305 2.747 10.365.016.034.025.077.045.109l.784 1.258c.005.009.01.019.017.027l16.678 26.716c.415.665 1.094.665 1.506 0l16.679-26.716c.006-.008.012-.019.016-.027L68.2 51.5c.02-.031.027-.075.043-.109 1.741-3.059 2.748-6.594 2.748-10.365A21.03 21.03 0 0 0 49.965 20M100 50c0 27.613-22.387 50-50 50S0 77.613 0 50 22.387 0 50 0s50 22.387 50 50"/>
    <path fill="#ffe9b3" d="M70.991 41.026c.001 3.636-.946 7.209-2.747 10.367-.019.033-.025.077-.045.108l-.784 1.259c-.005.007-.01.016-.017.025l-16.68 26.716c-.198.319-.457.475-.719.487V20.001a21.03 21.03 0 0 1 20.992 21.025"/>
    <path fill="#ae1f00" d="M60 41.017c0 3.107-1.112 5.726-3.038 7.505-1.69 1.566-4.003 2.472-6.758 2.472-3.991 0-7.437-2.29-9.116-5.623-.691-1.383-1.088-2.937-1.088-4.58s.397-3.198 1.088-4.58c1.679-3.333 5.125-5.625 9.115-5.625 2.755 0 5.057 1.01 6.827 2.654l-2.88 2.812c-.737-.692-2.03-1.519-3.947-1.519-2.698 0-4.988 1.78-5.815 4.24-.205.635-.33 1.316-.33 2.019s.125 1.383.341 2.018c.815 2.461 3.105 4.24 5.803 4.24 1.52 0 2.675-.42 3.539-1.02 1.359-.952 1.973-2.37 2.084-3.312h-5.623v-3.786h9.582c.147.635.215 1.248.215 2.086h0z"/>
</svg>
