<svg xmlns="http://www.w3.org/2000/svg" width="128" height="128"  xmlns:v="https://vecta.io/nano"><path d="M63.955 25.6c-14.863 0-26.912 12.05-26.912 26.914 0 4.828 1.289 9.35 3.516 13.267.021.043.032.098.058.139l1.004 1.61c.007.011.013.024.022.035l21.348 34.197c.531.851 1.4.851 1.928 0l21.349-34.197c.008-.01.015-.024.021-.034l1.007-1.611c.026-.04.034-.096.055-.139 2.228-3.916 3.518-8.44 3.518-13.267C90.87 37.65 78.82 25.6 63.955 25.6M128 64c0 35.345-28.655 64-64 64S0 99.345 0 64 28.655 0 64 0s64 28.655 64 64" fill="#b23115"/><path d="M90.869 52.513a26.77 26.77 0 0 1-3.516 13.27c-.024.042-.032.098-.058.138l-1.004 1.611c-.007.009-.013.021-.022.032l-21.35 34.197c-.254.408-.585.608-.92.623V25.601c14.844.024 26.87 12.064 26.87 26.912" fill="#ffe8b1"/><path d="M76.8 52.502c0 3.977-1.423 7.329-3.889 9.607-2.163 2.004-5.124 3.164-8.65 3.164-5.108 0-9.52-2.931-11.668-7.198-.885-1.77-1.393-3.759-1.393-5.862s.508-4.094 1.393-5.863c2.149-4.266 6.56-7.2 11.667-7.2 3.527 0 6.473 1.293 8.739 3.397l-3.687 3.599c-.943-.886-2.598-1.944-5.052-1.944-3.453 0-6.385 2.279-7.443 5.427-.262.813-.422 1.684-.422 2.584s.16 1.77.437 2.583c1.043 3.15 3.975 5.427 7.428 5.427 1.946 0 3.424-.537 4.53-1.305 1.74-1.218 2.525-3.034 2.668-4.24H64.26v-4.846h12.265c.188.813.275 1.598.275 2.67z" fill="#b23115"/></svg>