<svg xmlns="http://www.w3.org/2000/svg" xmlns:xlink="http://www.w3.org/1999/xlink" width="268" height="426" xmlns:v="https://vecta.io/nano"><defs><path d="M134.285 0h-.608C60.114 0 .268 59.826.268 133.36c0 48.202 21.952 111.817 65.246 189.08 32.098 57.28 64.646 101.152 64.972 101.588a4.8 4.8 0 0 0 3.847 1.934c.043 0 .087 0 .13-.002 1.56-.043 3.002-.842 3.868-2.143.32-.486 32.637-49.287 64.517-108.976 43.03-80.563 64.848-141.624 64.848-181.482C267.693 59.825 207.846 0 134.285 0zm61.58 136.62c0 34.124-27.76 61.884-61.885 61.884s-61.884-27.76-61.884-61.884 27.76-61.884 61.884-61.884 61.885 27.76 61.885 61.884z" id="A"/></defs><g fill-rule="nonzero" fill="none"><use fill="#fff" fill-rule="evenodd" xlink:href="#A"/><path stroke="#000" stroke-width="7" d="M134.285 3.5c71.628 0 129.908 58.258 129.91 129.86 0 39.132-21.657 99.74-64.435 179.833l-1.282 2.395c-13.737 25.587-28.46 50.93-43.19 74.902l-14.313 22.824-4.057 6.278-1.094 1.67-.413.626a1.3 1.3 0 0 1-1.044.573c-.023.001-.023.001-.01.001.001 0 .001 0-.025 0a1.3 1.3 0 0 1-1.04-.524l-1.545-2.11-4.184-5.83-14.743-21.398c-15.157-22.608-30.25-46.88-44.254-71.873-43.028-76.79-64.8-139.882-64.8-187.37C3.768 61.76 62.047 3.5 133.677 3.5h.608zm65.08 133.12c0 36.057-29.328 65.384-65.385 65.384s-65.384-29.328-65.384-65.384 29.328-65.384 65.384-65.384 65.385 29.328 65.385 65.384z"/></g></svg>