<svg xmlns="http://www.w3.org/2000/svg" width="268" height="426" xmlns:v="https://vecta.io/nano"><path d="M134.285 0h-.608C60.114 0 .268 59.826.268 133.36c0 48.202 21.952 111.817 65.246 189.08 32.098 57.28 64.646 101.152 64.972 101.588a4.8 4.8 0 0 0 3.847 1.934c.043 0 .087 0 .13-.002 1.56-.043 3.002-.842 3.868-2.143.32-.486 32.637-49.287 64.517-108.976 43.03-80.563 64.848-141.624 64.848-181.482C267.693 59.825 207.846 0 134.285 0zm61.58 136.62c0 34.124-27.76 61.884-61.885 61.884s-61.884-27.76-61.884-61.884 27.76-61.884 61.884-61.884 61.885 27.76 61.885 61.884z" fill-rule="nonzero" fill="#000"/></svg>