<svg xmlns="http://www.w3.org/2000/svg" width="100%" height="100%" viewBox="0 0 60 60">
    <path fill="#ffffff" d="M20.896 29.288H39.28v-6.897c0-2.538-.898-4.704-2.693-6.499s-3.961-2.693-6.499-2.693-4.704.898-6.499 2.693-2.693 3.961-2.693 6.499v6.897zm29.871 3.446v20.679c0 .959-.335 1.769-1.006 2.44s-1.486 1.006-2.44 1.006H12.855c-.959 0-1.769-.335-2.44-1.006s-1.006-1.486-1.006-2.44V32.733c0-.959.335-1.769 1.006-2.44s1.486-1.006 2.44-1.006h1.15v-6.897c0-4.405 1.578-8.186 4.74-11.343 3.157-3.157 6.943-4.74 11.343-4.74s8.186 1.578 11.343 4.74c3.162 3.162 4.74 6.943 4.74 11.343v6.891h1.15c.959 0 1.769.335 2.44 1.006.671.676 1.006 1.486 1.006 2.445z"/>
</svg>
